<svg t="1650126095916" class="icon" viewBox="0 0 1024 1024" version="1.1" xmlns="http://www.w3.org/2000/svg" p-id="9860" width="64" height="64"><path d="M511.706311 64.021106C264.433578 64.021106 63.981197 264.473487 63.981197 511.745197c0 247.270686 200.452381 447.725114 447.725114 447.725114s447.725114-200.453405 447.725114-447.725114C959.431425 264.473487 758.979044 64.021106 511.706311 64.021106zM728.584804 398.432455 624.964818 588.282361l-7.466042 13.298887-14.933107 26.596751c-4.857635 8.655124-10.341532 20.390399-20.212344 25.400506l-111.335714 75.765591c-3.974521 2.022053-8.274454 2.926656-12.576433 3.02694l0 0.197498-167.617555 0 0-30.460756 137.314389 0 8.030907-135.323035c-0.695848-11.289114 6.348592-22.097274 11.20111-30.749328l14.936177-26.600845 111.083981-203.148793c8.249895-14.69263 26.51591-19.727297 40.802288-11.243065l103.462396 61.431118C731.937155 364.952946 736.831628 383.739824 728.584804 398.432455z" p-id="9861" fill="#1890FF"></path></svg>